#tb 0: 1001/30000
0,          0,          0,        1,   921600, 0x82e44cb9
0,          1,          1,        1,   921600, 0x6ecc8a6c
0,          2,          2,        1,   921600, 0x0dc31839
0,          3,          3,        1,   921600, 0x8ed6fb3c
0,          4,          4,        1,   921600, 0x72d759fd
0,          5,          5,        1,   921600, 0x3941e84d
0,          6,          6,        1,   921600, 0x9e63f5cd
0,          7,          7,        1,   921600, 0xbce4f1cc
0,          8,          8,        1,   921600, 0xb531bd5d
0,          9,          9,        1,   921600, 0xab28aada
0,         10,         10,        1,   921600, 0x49f21d52
0,         11,         11,        1,   921600, 0x4d7488fa
0,         12,         12,        1,   921600, 0x16b9c9c9
0,         13,         13,        1,   921600, 0xa0a4f77f
